<svg width="144" height="48" viewBox="0 0 144 48" fill="none" xmlns="http://www.w3.org/2000/svg">
<g clip-path="url(#clip0_44_2630)">
<path d="M132.533 -8.81406e-05H11.4737C11.0325 -8.81406e-05 10.5965 -8.81406e-05 10.1564 0.00231186C9.78796 0.00471186 9.42249 0.0116839 9.05054 0.0175519C8.24249 0.027034 7.43635 0.0979234 6.63911 0.229604C5.84299 0.364151 5.07181 0.617811 4.35165 0.982004C3.63237 1.34928 2.97514 1.82651 2.40381 2.3964C1.82948 2.96468 1.35074 3.62153 0.98598 4.3417C0.620217 5.06044 0.366595 5.83064 0.233875 6.62569C0.0998928 7.41973 0.0277959 8.22294 0.018231 9.02809C0.00706378 9.39601 0.00588447 9.76515 0 10.1331V37.8702C0.00588447 38.2428 0.00706378 38.6038 0.018231 38.9765C0.0277988 39.7816 0.0998957 40.5848 0.233875 41.3788C0.366228 42.1743 0.619865 42.9449 0.98598 43.6639C1.35057 44.3818 1.82939 45.036 2.40381 45.6011C2.97298 46.1735 3.63063 46.6511 4.35165 47.0155C5.0718 47.3807 5.8429 47.6359 6.63911 47.7725C7.43648 47.9031 8.24254 47.9741 9.05054 47.9847C9.42249 47.9928 9.78796 47.9975 10.1564 47.9975C10.5965 47.9999 11.0325 47.9999 11.4737 47.9999H132.533C132.965 47.9999 133.405 47.9999 133.837 47.9975C134.204 47.9975 134.58 47.9928 134.947 47.9847C135.753 47.9746 136.558 47.9037 137.353 47.7725C138.152 47.6349 138.926 47.3798 139.65 47.0155C140.37 46.6509 141.027 46.1733 141.596 45.6011C142.169 45.0338 142.648 44.3801 143.018 43.6639C143.381 42.9444 143.632 42.1738 143.763 41.3788C143.897 40.5847 143.971 39.7817 143.986 38.9765C143.991 38.6038 143.991 38.2428 143.991 37.8702C144 37.4343 144 37.0007 144 36.5577V11.4433C144 11.0038 144 10.5679 143.991 10.1331C143.991 9.76515 143.991 9.39601 143.986 9.02804C143.971 8.22282 143.897 7.41979 143.763 6.62564C143.632 5.83105 143.381 5.06092 143.018 4.34166C142.275 2.89815 141.097 1.72314 139.65 0.981896C138.926 0.618593 138.152 0.365 137.353 0.229496C136.558 0.0972352 135.753 0.0263212 134.947 0.0173839C134.58 0.0115279 134.204 0.00449586 133.837 0.00215586C133.405 -0.000244141 132.965 -0.000244141 132.533 -0.000244141V-8.81406e-05Z" fill="#A6A6A6"/>
<path d="M10.1622 46.9498C9.7956 46.9498 9.43782 46.9451 9.07405 46.937C8.32048 46.9272 7.56867 46.8618 6.82479 46.7412C6.13115 46.6221 5.45921 46.4005 4.83112 46.0838C4.20878 45.7696 3.64117 45.3577 3.15001 44.8638C2.65174 44.3758 2.23691 43.8097 1.92196 43.188C1.60354 42.5624 1.38317 41.8917 1.26853 41.1994C1.14473 40.4555 1.07775 39.7034 1.06817 38.9494C1.06054 38.6963 1.05055 37.8537 1.05055 37.8537V10.133C1.05055 10.133 1.06119 9.30332 1.06823 9.05956C1.07741 8.30678 1.144 7.55579 1.26742 6.81308C1.38227 6.11891 1.60281 5.4463 1.92141 4.81856C2.2352 4.19734 2.64773 3.63084 3.14299 3.14102C3.6377 2.64655 4.20714 2.23253 4.83053 1.91406C5.45717 1.59832 6.12785 1.37828 6.82008 1.26133C7.56641 1.13961 8.32083 1.0738 9.07701 1.06446L10.1628 1.0498H133.831L134.93 1.06504C135.679 1.07392 136.427 1.13914 137.166 1.26015C137.866 1.37857 138.543 1.60014 139.177 1.91757C140.426 2.55939 141.442 3.5748 142.083 4.82149C142.397 5.4449 142.614 6.11201 142.727 6.80019C142.852 7.54899 142.922 8.30589 142.936 9.06485C142.94 9.40469 142.94 9.76972 142.94 10.133C142.949 10.583 142.949 11.0113 142.949 11.4432V36.5576C142.949 36.9935 142.949 37.4189 142.94 37.8478C142.94 38.238 142.94 38.5955 142.935 38.9634C142.921 39.7089 142.852 40.4522 142.73 41.1876C142.617 41.8849 142.398 42.5608 142.08 43.1916C141.763 43.8065 141.35 44.3677 140.858 44.8545C140.366 45.351 139.797 45.7653 139.174 46.0815C138.542 46.4007 137.865 46.6231 137.166 46.7412C136.423 46.8624 135.671 46.9278 134.917 46.937C134.565 46.9451 134.196 46.9498 133.837 46.9498L132.533 46.9522L10.1622 46.9498Z" fill="black"/>
<path d="M29.8061 24.3605C29.819 23.3589 30.0858 22.3769 30.5816 21.5057C31.0775 20.6346 31.7862 19.9027 32.6419 19.3781C32.0983 18.6039 31.3812 17.9667 30.5474 17.5173C29.7137 17.0678 28.7864 16.8184 27.8391 16.7889C25.8183 16.5773 23.8593 17.9947 22.8296 17.9947C21.7799 17.9947 20.1945 16.8099 18.4872 16.8449C17.3829 16.8805 16.3067 17.2007 15.3634 17.7744C14.4201 18.348 13.6419 19.1556 13.1046 20.1183C10.7773 24.1364 12.5133 30.0417 14.7427 33.2896C15.8581 34.88 17.1617 36.6566 18.8674 36.5936C20.5365 36.5245 21.1599 35.5322 23.1747 35.5322C25.1708 35.5322 25.7557 36.5936 27.496 36.5535C29.2871 36.5245 30.4155 34.956 31.4918 33.3506C32.2932 32.2173 32.9099 30.9649 33.319 29.6395C32.2785 29.2007 31.3905 28.4661 30.7658 27.5273C30.1411 26.5885 29.8073 25.4872 29.8061 24.3605Z" fill="white"/>
<path d="M26.5189 14.6529C27.4955 13.4838 27.9766 11.9812 27.8601 10.4641C26.3681 10.6204 24.99 11.3314 24.0002 12.4556C23.5163 13.0048 23.1457 13.6438 22.9095 14.3359C22.6733 15.028 22.5763 15.7598 22.6239 16.4893C23.3702 16.497 24.1084 16.3357 24.7831 16.0176C25.4578 15.6995 26.0513 15.2328 26.5189 14.6529Z" fill="white"/>
<path d="M50.9052 32.5675H45.2092L43.8413 36.5952H41.4287L46.8239 21.6936H49.3305L54.7257 36.5952H52.2719L50.9052 32.5675ZM45.7991 30.7089H50.3142L48.0884 24.1721H48.0261L45.7991 30.7089Z" fill="white"/>
<path d="M66.3775 31.1635C66.3775 34.5397 64.5653 36.7088 61.8307 36.7088C61.138 36.7449 60.4491 36.5858 59.8428 36.2496C59.2366 35.9135 58.7375 35.4139 58.4028 34.808H58.351V40.1892H56.1147V25.7307H58.2794V27.5377H58.3205C58.6706 26.9347 59.1781 26.4377 59.789 26.0995C60.3999 25.7613 61.0913 25.5945 61.7896 25.617C64.5547 25.617 66.3775 27.7967 66.3775 31.1635ZM64.0788 31.1635C64.0788 28.9639 62.9389 27.5178 61.1997 27.5178C59.491 27.5178 58.3417 28.9943 58.3417 31.1635C58.3417 33.3526 59.491 34.8186 61.1997 34.8186C62.9389 34.8186 64.0788 33.383 64.0788 31.1635Z" fill="white"/>
<path d="M78.3688 31.1635C78.3688 34.5397 76.5567 36.7088 73.8221 36.7088C73.1294 36.7449 72.4405 36.5858 71.8342 36.2496C71.228 35.9135 70.7289 35.4138 70.3942 34.808H70.3424V40.1892H68.1061V25.7307H70.2707V27.5377H70.3118C70.662 26.9347 71.1695 26.4377 71.7803 26.0995C72.3912 25.7613 73.0826 25.5945 73.7809 25.617C76.5461 25.617 78.3688 27.7967 78.3688 31.1635ZM76.0702 31.1635C76.0702 28.9639 74.9303 27.5178 73.191 27.5178C71.4823 27.5178 70.333 28.9943 70.333 31.1635C70.333 33.3525 71.4823 34.8186 73.191 34.8186C74.9303 34.8186 76.0702 33.383 76.0702 31.1635H76.0702Z" fill="white"/>
<path d="M86.2941 32.4432C86.4598 33.9209 87.8994 34.8912 89.8666 34.8912C91.7516 34.8912 93.1077 33.9209 93.1077 32.5884C93.1077 31.4318 92.2898 30.7392 90.3532 30.2646L88.4165 29.7994C85.6725 29.1384 84.3986 27.8587 84.3986 25.7822C84.3986 23.2111 86.6455 21.4451 89.8361 21.4451C92.9937 21.4451 95.1584 23.2111 95.2313 25.7822H92.9738C92.8386 24.2951 91.6059 23.3974 89.8043 23.3974C88.0028 23.3974 86.7701 24.3056 86.7701 25.6275C86.7701 26.681 87.5574 27.3009 89.4835 27.7755L91.1299 28.1786C94.1959 28.9017 95.4698 30.1298 95.4698 32.3095C95.4698 35.0974 93.2429 36.8435 89.7009 36.8435C86.3869 36.8435 84.1494 35.1384 84.0049 32.4431L86.2941 32.4432Z" fill="white"/>
<path d="M100.296 23.1597V25.7308H102.368V27.4968H100.296V33.4862C100.296 34.4167 100.711 34.8503 101.622 34.8503C101.868 34.846 102.113 34.8288 102.357 34.7987V36.5542C101.948 36.6305 101.532 36.665 101.115 36.6573C98.9095 36.6573 98.0493 35.8311 98.0493 33.7241V27.4968H96.4652V25.7308H98.0493V23.1597H100.296Z" fill="white"/>
<path d="M103.568 31.1636C103.568 27.7452 105.587 25.5972 108.735 25.5972C111.894 25.5972 113.904 27.7452 113.904 31.1636C113.904 34.5913 111.905 36.73 108.735 36.73C105.567 36.73 103.568 34.5913 103.568 31.1636ZM111.625 31.1636C111.625 28.8187 110.547 27.4347 108.735 27.4347C106.923 27.4347 105.847 28.8292 105.847 31.1636C105.847 33.5179 106.923 34.8913 108.735 34.8913C110.547 34.8913 111.625 33.5179 111.625 31.1636H111.625Z" fill="white"/>
<path d="M115.747 25.7308H117.88V27.58H117.932C118.076 27.0025 118.416 26.4921 118.893 26.1346C119.37 25.7771 119.956 25.5944 120.553 25.6171C120.81 25.6162 121.067 25.6441 121.319 25.7003V27.7863C120.993 27.6871 120.654 27.6416 120.314 27.6515C119.989 27.6384 119.665 27.6955 119.365 27.8189C119.064 27.9424 118.794 28.1293 118.572 28.3668C118.351 28.6042 118.184 28.8867 118.082 29.1947C117.98 29.5027 117.947 29.829 117.984 30.1511V36.5953H115.747L115.747 25.7308Z" fill="white"/>
<path d="M131.63 33.4042C131.329 35.3765 129.403 36.73 126.938 36.73C123.769 36.73 121.802 34.6124 121.802 31.2151C121.802 27.8073 123.78 25.5972 126.844 25.5972C129.859 25.5972 131.754 27.662 131.754 30.9561V31.7202H124.059V31.855C124.024 32.2548 124.074 32.6576 124.207 33.0366C124.339 33.4156 124.551 33.7622 124.828 34.0532C125.105 34.3443 125.442 34.5732 125.814 34.7248C126.187 34.8763 126.588 34.9471 126.99 34.9323C127.519 34.9817 128.049 34.8596 128.502 34.5843C128.956 34.309 129.308 33.8951 129.506 33.4042L131.63 33.4042ZM124.07 30.1616H129.517C129.537 29.8021 129.482 29.4423 129.356 29.1049C129.23 28.7674 129.036 28.4596 128.785 28.2007C128.534 27.9417 128.232 27.7373 127.898 27.6003C127.564 27.4632 127.205 27.3965 126.844 27.4042C126.48 27.402 126.119 27.4718 125.782 27.6095C125.445 27.7472 125.139 27.9501 124.881 28.2064C124.623 28.4628 124.419 28.7676 124.279 29.1031C124.14 29.4387 124.069 29.7985 124.07 30.1616V30.1616Z" fill="white"/>
<path d="M45.5189 10.4771C45.9877 10.4436 46.4582 10.5142 46.8963 10.6839C47.3345 10.8536 47.7294 11.1182 48.0526 11.4586C48.3758 11.7989 48.6193 12.2066 48.7654 12.6521C48.9115 13.0976 48.9566 13.5699 48.8975 14.0349C48.8975 16.3224 47.6577 17.6373 45.5189 17.6373H42.9253V10.4771H45.5189ZM44.0405 16.6247H45.3943C45.7293 16.6447 46.0646 16.5899 46.3757 16.4644C46.6868 16.3388 46.9659 16.1457 47.1928 15.899C47.4196 15.6523 47.5884 15.3583 47.6869 15.0384C47.7854 14.7184 47.8112 14.3806 47.7622 14.0495C47.8076 13.7197 47.7793 13.384 47.6793 13.0664C47.5792 12.7488 47.41 12.4572 47.1837 12.2125C46.9574 11.9678 46.6796 11.776 46.3702 11.6509C46.0609 11.5258 45.7276 11.4705 45.3943 11.489H44.0405V16.6247Z" fill="white"/>
<path d="M50.1572 14.933C50.1232 14.5779 50.1639 14.2197 50.2768 13.8812C50.3898 13.5427 50.5724 13.2315 50.813 12.9675C51.0536 12.7035 51.3469 12.4926 51.674 12.3483C52.0011 12.204 52.3549 12.1294 52.7126 12.1294C53.0703 12.1294 53.4241 12.204 53.7513 12.3483C54.0784 12.4926 54.3717 12.7035 54.6123 12.9675C54.8529 13.2315 55.0355 13.5427 55.1484 13.8812C55.2614 14.2197 55.3021 14.5779 55.268 14.933C55.3027 15.2885 55.2625 15.6473 55.1499 15.9863C55.0372 16.3254 54.8547 16.6371 54.6141 16.9016C54.3734 17.1661 54.0799 17.3775 53.7524 17.5221C53.425 17.6668 53.0708 17.7415 52.7126 17.7415C52.3545 17.7415 52.0003 17.6668 51.6728 17.5221C51.3454 17.3775 51.0519 17.1661 50.8112 16.9016C50.5705 16.6371 50.388 16.3254 50.2754 15.9863C50.1628 15.6473 50.1225 15.2885 50.1572 14.933ZM54.1681 14.933C54.1681 13.7618 53.6404 13.0768 52.7144 13.0768C51.7848 13.0768 51.2619 13.7618 51.2619 14.9331C51.2619 16.1137 51.7849 16.7934 52.7144 16.7934C53.6404 16.7934 54.1681 16.109 54.1681 14.933H54.1681Z" fill="white"/>
<path d="M62.0616 17.6372H60.9523L59.8324 13.6575H59.7478L58.6325 17.6372H57.5337L56.0401 12.2336H57.1248L58.0955 16.3568H58.1754L59.2894 12.2336H60.3154L61.4294 16.3568H61.514L62.48 12.2336H63.5494L62.0616 17.6372Z" fill="white"/>
<path d="M64.8057 12.2336H65.8351V13.092H65.915C66.0506 12.7837 66.2792 12.5253 66.5691 12.3527C66.8589 12.1802 67.1956 12.1021 67.5321 12.1293C67.7957 12.1096 68.0604 12.1492 68.3067 12.2453C68.5529 12.3414 68.7742 12.4916 68.9543 12.6846C69.1345 12.8776 69.2687 13.1086 69.3472 13.3603C69.4257 13.6121 69.4463 13.8783 69.4076 14.1391V17.6371H68.3382V14.4069C68.3382 13.5385 67.9598 13.1067 67.1689 13.1067C66.9899 13.0984 66.8112 13.1288 66.6451 13.1958C66.4789 13.2628 66.3293 13.3648 66.2064 13.4948C66.0835 13.6249 65.9903 13.7799 65.9331 13.9493C65.8759 14.1186 65.8561 14.2983 65.8751 14.476V17.6372H64.8057L64.8057 12.2336Z" fill="white"/>
<path d="M71.1116 10.1243H72.181V17.6372H71.1116V10.1243Z" fill="white"/>
<path d="M73.6676 14.9331C73.6335 14.578 73.6743 14.2197 73.7872 13.8812C73.9002 13.5427 74.0828 13.2315 74.3235 12.9675C74.5641 12.7035 74.8574 12.4926 75.1846 12.3483C75.5117 12.204 75.8655 12.1294 76.2233 12.1294C76.581 12.1294 76.9348 12.204 77.262 12.3483C77.5891 12.4926 77.8824 12.7035 78.1231 12.9675C78.3637 13.2315 78.5463 13.5427 78.6593 13.8812C78.7722 14.2197 78.813 14.578 78.7789 14.9331C78.8136 15.2886 78.7733 15.6474 78.6607 15.9864C78.548 16.3255 78.3655 16.6372 78.1248 16.9017C77.8841 17.1662 77.5906 17.3776 77.2631 17.5222C76.9356 17.6668 76.5814 17.7416 76.2233 17.7416C75.8651 17.7416 75.5109 17.6668 75.1834 17.5222C74.8559 17.3776 74.5624 17.1662 74.3217 16.9017C74.0811 16.6372 73.8985 16.3255 73.7859 15.9864C73.6732 15.6474 73.6329 15.2886 73.6676 14.9331ZM77.6784 14.9331C77.6784 13.7619 77.1507 13.0769 76.2247 13.0769C75.2952 13.0769 74.7723 13.7619 74.7723 14.9332C74.7723 16.1138 75.2952 16.7935 76.2247 16.7935C77.1508 16.7935 77.6784 16.1091 77.6784 14.9331H77.6784Z" fill="white"/>
<path d="M79.9048 16.1091C79.9048 15.1364 80.631 14.5757 81.9202 14.496L83.388 14.4116V13.9452C83.388 13.3745 83.0096 13.0522 82.2786 13.0522C81.6816 13.0522 81.268 13.2708 81.1493 13.6528H80.1139C80.2232 12.7247 81.0987 12.1294 82.328 12.1294C83.6865 12.1294 84.4527 12.8038 84.4527 13.9452V17.6372H83.4232V16.8778H83.3386C83.1669 17.1502 82.9257 17.3723 82.6398 17.5213C82.3538 17.6704 82.0333 17.7411 81.711 17.7262C81.4835 17.7498 81.2536 17.7256 81.0361 17.6552C80.8186 17.5847 80.6183 17.4696 80.4481 17.3173C80.2779 17.1649 80.1416 16.9787 80.0481 16.7706C79.9545 16.5625 79.9057 16.3371 79.9048 16.1091ZM83.388 15.6474V15.1956L82.0647 15.28C81.3185 15.3298 80.98 15.5829 80.98 16.0593C80.98 16.5456 81.4031 16.8286 81.9848 16.8286C82.1553 16.8458 82.3275 16.8286 82.4911 16.7781C82.6548 16.7276 82.8066 16.6448 82.9375 16.5346C83.0684 16.4244 83.1758 16.289 83.2532 16.1366C83.3305 15.9842 83.3764 15.8178 83.388 15.6474Z" fill="white"/>
<path d="M85.8582 14.9331C85.8582 13.2257 86.7384 12.144 88.1074 12.144C88.4461 12.1285 88.7822 12.2093 89.0764 12.3772C89.3707 12.5451 89.6109 12.793 89.7691 13.092H89.849V10.1243H90.9184V17.6372H89.8937V16.7834H89.8091C89.6387 17.0804 89.39 17.3253 89.0901 17.4914C88.7901 17.6576 88.4503 17.7388 88.1074 17.7262C86.729 17.7263 85.8582 16.6446 85.8582 14.9331ZM86.9628 14.9331C86.9628 16.0792 87.5046 16.7688 88.4107 16.7688C89.312 16.7688 89.869 16.0692 89.869 14.9378C89.869 13.8116 89.3061 13.102 88.4107 13.102C87.5104 13.102 86.9628 13.7964 86.9628 14.9331H86.9628Z" fill="white"/>
<path d="M95.3429 14.933C95.3088 14.5779 95.3496 14.2197 95.4625 13.8812C95.5754 13.5427 95.758 13.2315 95.9986 12.9675C96.2392 12.7035 96.5325 12.4926 96.8597 12.3483C97.1868 12.204 97.5406 12.1294 97.8983 12.1294C98.256 12.1294 98.6098 12.204 98.9369 12.3483C99.2641 12.4926 99.5573 12.7035 99.7979 12.9675C100.039 13.2315 100.221 13.5427 100.334 13.8812C100.447 14.2197 100.488 14.5779 100.454 14.933C100.488 15.2885 100.448 15.6473 100.336 15.9863C100.223 16.3254 100.04 16.6371 99.7997 16.9016C99.5591 17.1661 99.2656 17.3775 98.9381 17.5221C98.6106 17.6668 98.2564 17.7415 97.8983 17.7415C97.5401 17.7415 97.1859 17.6668 96.8585 17.5221C96.531 17.3775 96.2375 17.1661 95.9969 16.9016C95.7562 16.6371 95.5737 16.3254 95.4611 15.9863C95.3484 15.6473 95.3082 15.2885 95.3429 14.933ZM99.3537 14.933C99.3537 13.7618 98.8261 13.0768 97.9001 13.0768C96.9705 13.0768 96.4476 13.7618 96.4476 14.9331C96.4476 16.1137 96.9705 16.7934 97.9001 16.7934C98.8261 16.7934 99.3537 16.109 99.3537 14.933Z" fill="white"/>
<path d="M101.889 12.2336H102.918V13.092H102.998C103.133 12.7837 103.362 12.5253 103.652 12.3527C103.942 12.1802 104.278 12.1021 104.615 12.1293C104.879 12.1096 105.143 12.1492 105.39 12.2453C105.636 12.3414 105.857 12.4916 106.037 12.6846C106.217 12.8776 106.352 13.1086 106.43 13.3603C106.509 13.6121 106.529 13.8783 106.491 14.1391V17.6371H105.421V14.4069C105.421 13.5385 105.043 13.1067 104.252 13.1067C104.073 13.0984 103.894 13.1288 103.728 13.1958C103.562 13.2628 103.412 13.3648 103.289 13.4948C103.166 13.6249 103.073 13.7799 103.016 13.9493C102.959 14.1186 102.939 14.2983 102.958 14.476V17.6372H101.889V12.2336Z" fill="white"/>
<path d="M112.533 10.8884V12.2583H113.707V13.1566H112.533V15.9351C112.533 16.5011 112.767 16.749 113.299 16.749C113.436 16.7485 113.572 16.7403 113.707 16.7244V17.6126C113.515 17.6469 113.321 17.6651 113.125 17.6671C111.936 17.6671 111.463 17.2499 111.463 16.2081V13.1565H110.602V12.2583H111.463V10.8884H112.533Z" fill="white"/>
<path d="M115.168 10.1243H116.228V13.102H116.313C116.455 12.7908 116.69 12.5309 116.985 12.3577C117.281 12.1845 117.623 12.1064 117.965 12.134C118.227 12.1198 118.489 12.1635 118.733 12.2619C118.976 12.3604 119.195 12.5112 119.373 12.7036C119.551 12.896 119.685 13.1253 119.764 13.375C119.843 13.6248 119.866 13.8889 119.831 14.1485V17.6372H118.76V14.4116C118.76 13.5485 118.357 13.1114 117.602 13.1114C117.418 13.0963 117.233 13.1215 117.06 13.1852C116.887 13.2489 116.73 13.3495 116.6 13.4799C116.47 13.6104 116.37 13.7676 116.308 13.9406C116.245 14.1136 116.221 14.2981 116.237 14.4813V17.6371H115.168L115.168 10.1243Z" fill="white"/>
<path d="M126.066 16.1783C125.921 16.6722 125.606 17.0993 125.177 17.3851C124.748 17.6709 124.232 17.7971 123.718 17.7416C123.361 17.751 123.007 17.6828 122.679 17.5418C122.351 17.4007 122.058 17.1902 121.819 16.9249C121.581 16.6595 121.404 16.3456 121.3 16.005C121.195 15.6645 121.167 15.3053 121.215 14.9525C121.168 14.5987 121.197 14.2388 121.301 13.8971C121.405 13.5555 121.582 13.2402 121.819 12.9725C122.055 12.7048 122.347 12.491 122.674 12.3456C123.001 12.2001 123.356 12.1264 123.714 12.1295C125.221 12.1295 126.131 13.1567 126.131 14.8535V15.2256H122.305V15.2854C122.288 15.4836 122.313 15.6832 122.378 15.8713C122.443 16.0594 122.547 16.2319 122.683 16.3776C122.819 16.5234 122.984 16.6392 123.167 16.7177C123.35 16.7962 123.548 16.8356 123.748 16.8334C124.004 16.864 124.263 16.818 124.492 16.7014C124.722 16.5847 124.911 16.4027 125.037 16.1783L126.066 16.1783ZM122.305 14.4369H125.042C125.055 14.2556 125.03 14.0734 124.969 13.9021C124.908 13.7309 124.811 13.5743 124.686 13.4425C124.56 13.3106 124.408 13.2065 124.24 13.1367C124.071 13.0668 123.89 13.0329 123.708 13.0371C123.523 13.0348 123.339 13.0694 123.168 13.1389C122.997 13.2085 122.841 13.3115 122.71 13.442C122.58 13.5724 122.476 13.7277 122.407 13.8985C122.337 14.0694 122.302 14.2525 122.305 14.4369H122.305Z" fill="white"/>
</g>
<defs>
<clipPath id="clip0_44_2630">
<rect width="144" height="48" fill="white"/>
</clipPath>
</defs>
</svg>
